<svg aria-hidden="true" style="position: absolute; width: 0; height: 0; overflow: hidden;" version="1.1" xmlns="http://www.w3.org/2000/svg" xmlns:xlink="http://www.w3.org/1999/xlink">
<defs>
<symbol id="icon-confirmation" viewBox="0 0 34 32">
<path fill="#1e9a65" style="fill: var(--color1, #1e9a65)" d="M16.955 31.987c2.319 0 4.503-0.419 6.551-1.258 2.048-0.828 3.847-1.979 5.397-3.452 1.56-1.473 2.785-3.17 3.674-5.093 0.889-1.933 1.333-3.999 1.333-6.198 0-2.189-0.444-4.245-1.333-6.167-0.889-1.933-2.113-3.636-3.674-5.109-1.55-1.473-3.354-2.623-5.413-3.452-2.048-0.839-4.232-1.258-6.551-1.258s-4.503 0.419-6.551 1.258c-2.048 0.828-3.853 1.979-5.413 3.452-1.55 1.473-2.769 3.176-3.658 5.109-0.878 1.923-1.317 3.979-1.317 6.167 0 2.199 0.439 4.265 1.317 6.198 0.889 1.923 2.113 3.621 3.674 5.093s3.365 2.624 5.413 3.452c2.048 0.839 4.232 1.258 6.551 1.258zM15.151 23.596c-0.336 0-0.639-0.067-0.91-0.2-0.271-0.143-0.526-0.358-0.764-0.644l-3.918-4.449c-0.152-0.194-0.271-0.384-0.358-0.568-0.076-0.194-0.114-0.394-0.114-0.598 0-0.43 0.157-0.793 0.471-1.089 0.314-0.307 0.699-0.46 1.154-0.46 0.271 0 0.515 0.056 0.732 0.169 0.217 0.102 0.434 0.281 0.65 0.537l3.007 3.559 6.551-9.88c0.39-0.583 0.872-0.874 1.447-0.874 0.434 0 0.818 0.133 1.154 0.399 0.347 0.266 0.52 0.614 0.52 1.043 0 0.194-0.043 0.389-0.13 0.583-0.076 0.194-0.173 0.378-0.293 0.552l-7.592 11.077c-0.195 0.266-0.433 0.476-0.715 0.629-0.271 0.143-0.569 0.215-0.894 0.215z"></path>
</symbol>
</defs>
</svg>
