<svg aria-hidden="true" style="position: absolute; width: 0; height: 0; overflow: hidden;" version="1.1" xmlns="http://www.w3.org/2000/svg" xmlns:xlink="http://www.w3.org/1999/xlink">
<defs>
<symbol id="icon-facebook" viewBox="0 0 32 32">
<path d="M31.238 16.583c0-8.467-6.822-15.331-15.238-15.331s-15.238 6.864-15.238 15.331c0 7.652 5.572 13.995 12.857 15.145v-10.713h-3.869v-4.432h3.869v-3.378c0-3.842 2.275-5.965 5.756-5.965 1.667 0 3.411 0.299 3.411 0.299v3.773h-1.921c-1.893 0-2.483 1.182-2.483 2.394v2.876h4.226l-0.675 4.432h-3.551v10.713c7.285-1.15 12.857-7.493 12.857-15.145z"></path>
</symbol>
<symbol id="icon-instagram" viewBox="0 0 32 32">
<path d="M22.737 1.383h-13.474c-4.651 0-8.421 3.77-8.421 8.421v13.474c0 4.651 3.77 8.421 8.421 8.421h13.474c4.651 0 8.421-3.77 8.421-8.421v-13.474c0-4.651-3.77-8.421-8.421-8.421zM28.211 23.278c-0.009 3.019-2.455 5.464-5.474 5.474h-13.474c-3.019-0.009-5.464-2.455-5.474-5.474v-13.474c0.009-3.019 2.454-5.464 5.474-5.474h13.474c3.019 0.009 5.464 2.454 5.474 5.474v13.474zM24 10.225c-0.93 0-1.684-0.754-1.684-1.684s0.754-1.684 1.684-1.684c0.93 0 1.684 0.754 1.684 1.684s-0.754 1.684-1.684 1.684zM16 8.962c2.011-0.004 3.942 0.793 5.364 2.215s2.219 3.353 2.215 5.364c0 4.186-3.393 7.579-7.579 7.579s-7.579-3.393-7.579-7.579c0-4.186 3.393-7.579 7.579-7.579zM11.368 16.541c0 2.558 2.074 4.632 4.632 4.632s4.632-2.074 4.632-4.632c0-2.558-2.074-4.632-4.632-4.632s-4.632 2.074-4.632 4.632z"></path>
</symbol>
<symbol id="icon-youtube" viewBox="0 0 45 32">
<path d="M42.865 5.934c-0.243-0.902-0.718-1.724-1.377-2.385s-1.481-1.138-2.382-1.383c-3.341-0.917-16.706-0.932-16.706-0.932s-13.363-0.015-16.706 0.862c-0.9 0.256-1.72 0.74-2.38 1.404s-1.138 1.487-1.388 2.389c-0.881 3.341-0.89 10.27-0.89 10.27s-0.009 6.963 0.866 10.27c0.491 1.828 1.931 3.273 3.761 3.765 3.375 0.917 16.704 0.932 16.704 0.932s13.365 0.015 16.706-0.86c0.901-0.244 1.723-0.72 2.384-1.38s1.139-1.48 1.385-2.381c0.883-3.339 0.89-10.266 0.89-10.266s0.043-6.965-0.868-10.306zM18.124 22.578l0.011-12.8 11.108 6.411-11.119 6.389z"></path>
</symbol>
</defs>
</svg>
