<svg aria-hidden="true" style="position: absolute; width: 0; height: 0; overflow: hidden;" version="1.1" xmlns="http://www.w3.org/2000/svg" xmlns:xlink="http://www.w3.org/1999/xlink">
<defs>
<symbol id="icon-facebook" viewBox="0 0 32 32">
<path d="M31.238 16.583c0-8.467-6.822-15.331-15.238-15.331s-15.238 6.864-15.238 15.331c0 7.652 5.572 13.995 12.857 15.145v-10.713h-3.869v-4.432h3.869v-3.378c0-3.842 2.275-5.965 5.756-5.965 1.667 0 3.411 0.299 3.411 0.299v3.773h-1.921c-1.893 0-2.483 1.182-2.483 2.394v2.876h4.226l-0.675 4.432h-3.551v10.713c7.285-1.15 12.857-7.493 12.857-15.145z"></path>
</symbol>
<symbol id="icon-instagram" viewBox="0 0 32 32">
<path d="M22.737 1.383h-13.474c-4.651 0-8.421 3.77-8.421 8.421v13.474c0 4.651 3.77 8.421 8.421 8.421h13.474c4.651 0 8.421-3.77 8.421-8.421v-13.474c0-4.651-3.77-8.421-8.421-8.421zM28.211 23.278c-0.009 3.019-2.455 5.464-5.474 5.474h-13.474c-3.019-0.009-5.464-2.455-5.474-5.474v-13.474c0.009-3.019 2.454-5.464 5.474-5.474h13.474c3.019 0.009 5.464 2.454 5.474 5.474v13.474zM24 10.225c-0.93 0-1.684-0.754-1.684-1.684s0.754-1.684 1.684-1.684c0.93 0 1.684 0.754 1.684 1.684s-0.754 1.684-1.684 1.684zM16 8.962c2.011-0.004 3.942 0.793 5.364 2.215s2.219 3.353 2.215 5.364c0 4.186-3.393 7.579-7.579 7.579s-7.579-3.393-7.579-7.579c0-4.186 3.393-7.579 7.579-7.579zM11.368 16.541c0 2.558 2.074 4.632 4.632 4.632s4.632-2.074 4.632-4.632c0-2.558-2.074-4.632-4.632-4.632s-4.632 2.074-4.632 4.632z"></path>
</symbol>
<symbol id="icon-youtube" viewBox="0 0 45 32">
<path d="M42.865 5.934c-0.243-0.902-0.718-1.724-1.377-2.385s-1.481-1.138-2.382-1.383c-3.341-0.917-16.706-0.932-16.706-0.932s-13.363-0.015-16.706 0.862c-0.9 0.256-1.72 0.74-2.38 1.404s-1.138 1.487-1.388 2.389c-0.881 3.341-0.89 10.27-0.89 10.27s-0.009 6.963 0.866 10.27c0.491 1.828 1.931 3.273 3.761 3.765 3.375 0.917 16.704 0.932 16.704 0.932s13.365 0.015 16.706-0.86c0.901-0.244 1.723-0.72 2.384-1.38s1.139-1.48 1.385-2.381c0.883-3.339 0.89-10.266 0.89-10.266s0.043-6.965-0.868-10.306zM18.124 22.578l0.011-12.8 11.108 6.411-11.119 6.389z"></path>
</symbol>
<symbol id="icon-call" viewBox="0 0 32 32">
<path d="M24.135 17.712c-0.152-0.152-0.333-0.273-0.532-0.356s-0.412-0.125-0.628-0.125-0.429 0.042-0.628 0.125c-0.199 0.083-0.38 0.204-0.532 0.356l-2.616 2.616c-1.213-0.361-3.476-1.182-4.91-2.616s-2.255-3.697-2.616-4.91l2.616-2.616c0.152-0.152 0.273-0.333 0.356-0.532s0.125-0.412 0.125-0.628c0-0.216-0.042-0.429-0.125-0.628s-0.204-0.38-0.356-0.532l-6.564-6.564c-0.152-0.153-0.333-0.274-0.532-0.356s-0.412-0.125-0.628-0.125c-0.216 0-0.429 0.042-0.628 0.125s-0.38 0.204-0.532 0.356l-4.45 4.45c-0.624 0.624-0.975 1.48-0.962 2.355 0.038 2.337 0.656 10.453 7.053 16.85s14.513 7.014 16.852 7.053h0.046c0.866 0 1.685-0.341 2.306-0.962l4.45-4.45c0.152-0.152 0.273-0.333 0.356-0.532s0.125-0.412 0.125-0.628-0.042-0.429-0.125-0.628c-0.083-0.199-0.204-0.38-0.356-0.532l-6.564-6.566zM23.926 28.726c-2.048-0.034-9.055-0.584-14.561-6.092-5.524-5.524-6.059-12.555-6.091-14.562l3.29-3.29 4.244 4.244-2.122 2.122c-0.193 0.193-0.335 0.431-0.413 0.692s-0.090 0.538-0.034 0.805c0.039 0.189 1.003 4.664 3.727 7.388s7.199 3.687 7.388 3.727c0.267 0.057 0.544 0.047 0.805-0.031s0.499-0.22 0.692-0.414l2.123-2.122 4.244 4.244-3.292 3.29z"></path>
</symbol>
<symbol id="icon-email" viewBox="0 0 41 32">
<path d="M35.879 0.485h-31.030c-2.139 0-3.879 1.74-3.879 3.879v23.273c0 2.139 1.74 3.879 3.879 3.879h31.030c2.139 0 3.879-1.74 3.879-3.879v-23.273c0-2.139-1.74-3.879-3.879-3.879zM35.879 4.364v0.991l-15.515 12.069-15.515-12.067v-0.993h31.030zM4.849 27.636v-17.369l14.324 11.142c0.34 0.267 0.759 0.412 1.191 0.412s0.851-0.145 1.191-0.412l14.324-11.142 0.004 17.369h-31.034z"></path>
</symbol>
<symbol id="icon-location" viewBox="0 0 25 32">
<path d="M12.571 19.048c3.361 0 6.095-2.734 6.095-6.095s-2.734-6.095-6.095-6.095c-3.362 0-6.095 2.734-6.095 6.095s2.734 6.095 6.095 6.095zM12.571 9.905c1.681 0 3.048 1.367 3.048 3.048s-1.367 3.048-3.048 3.048c-1.681 0-3.048-1.367-3.048-3.048s1.367-3.048 3.048-3.048zM11.687 30.955c0.258 0.184 0.567 0.283 0.884 0.283s0.626-0.099 0.884-0.283c0.463-0.328 11.351-8.189 11.307-18.002 0-6.721-5.469-12.19-12.191-12.19s-12.191 5.469-12.191 12.183c-0.044 9.821 10.843 17.682 11.307 18.010zM12.571 3.81c5.042 0 9.143 4.101 9.143 9.15 0.032 6.763-6.686 12.835-9.143 14.827-2.455-1.993-9.175-8.067-9.143-14.834 0-5.042 4.101-9.143 9.143-9.143z"></path>
</symbol>
<symbol id="icon-confirmation" viewBox="0 0 34 32">
<path fill="#1e9a65" style="fill: var(--color1, #1e9a65)" d="M16.83 31.935c2.302 0 4.47-0.416 6.503-1.249 2.033-0.822 3.819-1.965 5.357-3.426 1.549-1.462 2.764-3.147 3.647-5.056 0.882-1.919 1.323-3.969 1.323-6.152 0-2.172-0.441-4.213-1.323-6.122-0.882-1.919-2.098-3.609-3.647-5.071-1.538-1.462-3.329-2.604-5.373-3.426-2.033-0.832-4.201-1.249-6.503-1.249s-4.47 0.416-6.503 1.249c-2.033 0.822-3.824 1.964-5.373 3.426-1.538 1.462-2.748 3.152-3.631 5.071-0.871 1.909-1.307 3.949-1.307 6.122 0 2.183 0.436 4.233 1.307 6.152 0.882 1.909 2.098 3.594 3.647 5.056s3.34 2.604 5.373 3.426c2.033 0.832 4.201 1.249 6.503 1.249zM15.039 23.605c-0.334 0-0.635-0.066-0.904-0.198-0.269-0.142-0.522-0.355-0.758-0.64l-3.889-4.416c-0.151-0.193-0.269-0.381-0.355-0.563-0.075-0.193-0.113-0.391-0.113-0.594 0-0.426 0.156-0.787 0.468-1.081 0.312-0.305 0.694-0.457 1.146-0.457 0.269 0 0.511 0.056 0.726 0.168 0.215 0.102 0.43 0.279 0.645 0.533l2.985 3.533 6.503-9.807c0.387-0.579 0.866-0.868 1.436-0.868 0.43 0 0.812 0.132 1.146 0.396 0.344 0.264 0.516 0.609 0.516 1.036 0 0.193-0.043 0.386-0.129 0.579-0.075 0.193-0.172 0.376-0.291 0.548l-7.535 10.995c-0.194 0.264-0.43 0.472-0.71 0.624-0.269 0.142-0.565 0.213-0.887 0.213z"></path>
</symbol>
</defs>
</svg>
